<?xml version="1.0" encoding="utf-8" standalone="no"?>
<!DOCTYPE svg PUBLIC "-//W3C//DTD SVG 1.1//EN"
  "http://www.w3.org/Graphics/SVG/1.1/DTD/svg11.dtd">
<svg xmlns:xlink="http://www.w3.org/1999/xlink" width="864pt" height="648pt" viewBox="0 0 864 648" xmlns="http://www.w3.org/2000/svg" version="1.1">
 <metadata>
  <rdf:RDF xmlns:dc="http://purl.org/dc/elements/1.1/" xmlns:cc="http://creativecommons.org/ns#" xmlns:rdf="http://www.w3.org/1999/02/22-rdf-syntax-ns#">
   <cc:Work>
    <dc:type rdf:resource="http://purl.org/dc/dcmitype/StillImage"/>
    <dc:date>2025-02-19T08:17:13.445280</dc:date>
    <dc:format>image/svg+xml</dc:format>
    <dc:creator>
     <cc:Agent>
      <dc:title>Matplotlib v3.9.4, https://matplotlib.org/</dc:title>
     </cc:Agent>
    </dc:creator>
   </cc:Work>
  </rdf:RDF>
 </metadata>
 <defs>
  <style type="text/css">*{stroke-linejoin: round; stroke-linecap: butt}</style>
 </defs>
 <g id="figure_1">
  <g id="patch_1">
   <path d="M 0 648 
L 864 648 
L 864 0 
L 0 0 
z
" style="fill: #ffffff"/>
  </g>
  <g id="axes_1">
   <g id="patch_2">
    <path d="M 108 576.72 
L 777.6 576.72 
L 777.6 77.76 
L 108 77.76 
z
" style="fill: #ffffff"/>
   </g>
   <g id="matplotlib.axis_1">
    <g id="xtick_1">
     <g id="line2d_1">
      <path d="M 138.436364 576.72 
L 138.436364 77.76 
" clip-path="url(#p54bceade21)" style="fill: none; stroke: #b0b0b0; stroke-width: 0.8; stroke-linecap: square"/>
     </g>
     <g id="line2d_2">
      <defs>
       <path id="m75ce461333" d="M 0 0 
L 0 3.5 
" style="stroke: #000000; stroke-width: 0.8"/>
      </defs>
      <g>
       <use xlink:href="#m75ce461333" x="138.436364" y="576.72" style="stroke: #000000; stroke-width: 0.8"/>
      </g>
     </g>
     <g id="text_1">
      <!-- 0.0 -->
      <g transform="translate(130.484801 591.318438) scale(0.1 -0.1)">
       <defs>
        <path id="DejaVuSans-30" d="M 2034 4250 
Q 1547 4250 1301 3770 
Q 1056 3291 1056 2328 
Q 1056 1369 1301 889 
Q 1547 409 2034 409 
Q 2525 409 2770 889 
Q 3016 1369 3016 2328 
Q 3016 3291 2770 3770 
Q 2525 4250 2034 4250 
z
M 2034 4750 
Q 2819 4750 3233 4129 
Q 3647 3509 3647 2328 
Q 3647 1150 3233 529 
Q 2819 -91 2034 -91 
Q 1250 -91 836 529 
Q 422 1150 422 2328 
Q 422 3509 836 4129 
Q 1250 4750 2034 4750 
z
" transform="scale(0.015625)"/>
        <path id="DejaVuSans-2e" d="M 684 794 
L 1344 794 
L 1344 0 
L 684 0 
L 684 794 
z
" transform="scale(0.015625)"/>
       </defs>
       <use xlink:href="#DejaVuSans-30"/>
       <use xlink:href="#DejaVuSans-2e" x="63.623047"/>
       <use xlink:href="#DejaVuSans-30" x="95.410156"/>
      </g>
     </g>
    </g>
    <g id="xtick_2">
     <g id="line2d_3">
      <path d="M 260.181818 576.72 
L 260.181818 77.76 
" clip-path="url(#p54bceade21)" style="fill: none; stroke: #b0b0b0; stroke-width: 0.8; stroke-linecap: square"/>
     </g>
     <g id="line2d_4">
      <g>
       <use xlink:href="#m75ce461333" x="260.181818" y="576.72" style="stroke: #000000; stroke-width: 0.8"/>
      </g>
     </g>
     <g id="text_2">
      <!-- 0.2 -->
      <g transform="translate(252.230256 591.318438) scale(0.1 -0.1)">
       <defs>
        <path id="DejaVuSans-32" d="M 1228 531 
L 3431 531 
L 3431 0 
L 469 0 
L 469 531 
Q 828 903 1448 1529 
Q 2069 2156 2228 2338 
Q 2531 2678 2651 2914 
Q 2772 3150 2772 3378 
Q 2772 3750 2511 3984 
Q 2250 4219 1831 4219 
Q 1534 4219 1204 4116 
Q 875 4013 500 3803 
L 500 4441 
Q 881 4594 1212 4672 
Q 1544 4750 1819 4750 
Q 2544 4750 2975 4387 
Q 3406 4025 3406 3419 
Q 3406 3131 3298 2873 
Q 3191 2616 2906 2266 
Q 2828 2175 2409 1742 
Q 1991 1309 1228 531 
z
" transform="scale(0.015625)"/>
       </defs>
       <use xlink:href="#DejaVuSans-30"/>
       <use xlink:href="#DejaVuSans-2e" x="63.623047"/>
       <use xlink:href="#DejaVuSans-32" x="95.410156"/>
      </g>
     </g>
    </g>
    <g id="xtick_3">
     <g id="line2d_5">
      <path d="M 381.927273 576.72 
L 381.927273 77.76 
" clip-path="url(#p54bceade21)" style="fill: none; stroke: #b0b0b0; stroke-width: 0.8; stroke-linecap: square"/>
     </g>
     <g id="line2d_6">
      <g>
       <use xlink:href="#m75ce461333" x="381.927273" y="576.72" style="stroke: #000000; stroke-width: 0.8"/>
      </g>
     </g>
     <g id="text_3">
      <!-- 0.4 -->
      <g transform="translate(373.97571 591.318438) scale(0.1 -0.1)">
       <defs>
        <path id="DejaVuSans-34" d="M 2419 4116 
L 825 1625 
L 2419 1625 
L 2419 4116 
z
M 2253 4666 
L 3047 4666 
L 3047 1625 
L 3713 1625 
L 3713 1100 
L 3047 1100 
L 3047 0 
L 2419 0 
L 2419 1100 
L 313 1100 
L 313 1709 
L 2253 4666 
z
" transform="scale(0.015625)"/>
       </defs>
       <use xlink:href="#DejaVuSans-30"/>
       <use xlink:href="#DejaVuSans-2e" x="63.623047"/>
       <use xlink:href="#DejaVuSans-34" x="95.410156"/>
      </g>
     </g>
    </g>
    <g id="xtick_4">
     <g id="line2d_7">
      <path d="M 503.672727 576.72 
L 503.672727 77.76 
" clip-path="url(#p54bceade21)" style="fill: none; stroke: #b0b0b0; stroke-width: 0.8; stroke-linecap: square"/>
     </g>
     <g id="line2d_8">
      <g>
       <use xlink:href="#m75ce461333" x="503.672727" y="576.72" style="stroke: #000000; stroke-width: 0.8"/>
      </g>
     </g>
     <g id="text_4">
      <!-- 0.6 -->
      <g transform="translate(495.721165 591.318438) scale(0.1 -0.1)">
       <defs>
        <path id="DejaVuSans-36" d="M 2113 2584 
Q 1688 2584 1439 2293 
Q 1191 2003 1191 1497 
Q 1191 994 1439 701 
Q 1688 409 2113 409 
Q 2538 409 2786 701 
Q 3034 994 3034 1497 
Q 3034 2003 2786 2293 
Q 2538 2584 2113 2584 
z
M 3366 4563 
L 3366 3988 
Q 3128 4100 2886 4159 
Q 2644 4219 2406 4219 
Q 1781 4219 1451 3797 
Q 1122 3375 1075 2522 
Q 1259 2794 1537 2939 
Q 1816 3084 2150 3084 
Q 2853 3084 3261 2657 
Q 3669 2231 3669 1497 
Q 3669 778 3244 343 
Q 2819 -91 2113 -91 
Q 1303 -91 875 529 
Q 447 1150 447 2328 
Q 447 3434 972 4092 
Q 1497 4750 2381 4750 
Q 2619 4750 2861 4703 
Q 3103 4656 3366 4563 
z
" transform="scale(0.015625)"/>
       </defs>
       <use xlink:href="#DejaVuSans-30"/>
       <use xlink:href="#DejaVuSans-2e" x="63.623047"/>
       <use xlink:href="#DejaVuSans-36" x="95.410156"/>
      </g>
     </g>
    </g>
    <g id="xtick_5">
     <g id="line2d_9">
      <path d="M 625.418182 576.72 
L 625.418182 77.76 
" clip-path="url(#p54bceade21)" style="fill: none; stroke: #b0b0b0; stroke-width: 0.8; stroke-linecap: square"/>
     </g>
     <g id="line2d_10">
      <g>
       <use xlink:href="#m75ce461333" x="625.418182" y="576.72" style="stroke: #000000; stroke-width: 0.8"/>
      </g>
     </g>
     <g id="text_5">
      <!-- 0.8 -->
      <g transform="translate(617.466619 591.318438) scale(0.1 -0.1)">
       <defs>
        <path id="DejaVuSans-38" d="M 2034 2216 
Q 1584 2216 1326 1975 
Q 1069 1734 1069 1313 
Q 1069 891 1326 650 
Q 1584 409 2034 409 
Q 2484 409 2743 651 
Q 3003 894 3003 1313 
Q 3003 1734 2745 1975 
Q 2488 2216 2034 2216 
z
M 1403 2484 
Q 997 2584 770 2862 
Q 544 3141 544 3541 
Q 544 4100 942 4425 
Q 1341 4750 2034 4750 
Q 2731 4750 3128 4425 
Q 3525 4100 3525 3541 
Q 3525 3141 3298 2862 
Q 3072 2584 2669 2484 
Q 3125 2378 3379 2068 
Q 3634 1759 3634 1313 
Q 3634 634 3220 271 
Q 2806 -91 2034 -91 
Q 1263 -91 848 271 
Q 434 634 434 1313 
Q 434 1759 690 2068 
Q 947 2378 1403 2484 
z
M 1172 3481 
Q 1172 3119 1398 2916 
Q 1625 2713 2034 2713 
Q 2441 2713 2670 2916 
Q 2900 3119 2900 3481 
Q 2900 3844 2670 4047 
Q 2441 4250 2034 4250 
Q 1625 4250 1398 4047 
Q 1172 3844 1172 3481 
z
" transform="scale(0.015625)"/>
       </defs>
       <use xlink:href="#DejaVuSans-30"/>
       <use xlink:href="#DejaVuSans-2e" x="63.623047"/>
       <use xlink:href="#DejaVuSans-38" x="95.410156"/>
      </g>
     </g>
    </g>
    <g id="xtick_6">
     <g id="line2d_11">
      <path d="M 747.163636 576.72 
L 747.163636 77.76 
" clip-path="url(#p54bceade21)" style="fill: none; stroke: #b0b0b0; stroke-width: 0.8; stroke-linecap: square"/>
     </g>
     <g id="line2d_12">
      <g>
       <use xlink:href="#m75ce461333" x="747.163636" y="576.72" style="stroke: #000000; stroke-width: 0.8"/>
      </g>
     </g>
     <g id="text_6">
      <!-- 1.0 -->
      <g transform="translate(739.212074 591.318438) scale(0.1 -0.1)">
       <defs>
        <path id="DejaVuSans-31" d="M 794 531 
L 1825 531 
L 1825 4091 
L 703 3866 
L 703 4441 
L 1819 4666 
L 2450 4666 
L 2450 531 
L 3481 531 
L 3481 0 
L 794 0 
L 794 531 
z
" transform="scale(0.015625)"/>
       </defs>
       <use xlink:href="#DejaVuSans-31"/>
       <use xlink:href="#DejaVuSans-2e" x="63.623047"/>
       <use xlink:href="#DejaVuSans-30" x="95.410156"/>
      </g>
     </g>
    </g>
    <g id="text_7">
     <!-- x -->
     <g transform="translate(439.840625 604.996562) scale(0.1 -0.1)">
      <defs>
       <path id="DejaVuSans-78" d="M 3513 3500 
L 2247 1797 
L 3578 0 
L 2900 0 
L 1881 1375 
L 863 0 
L 184 0 
L 1544 1831 
L 300 3500 
L 978 3500 
L 1906 2253 
L 2834 3500 
L 3513 3500 
z
" transform="scale(0.015625)"/>
      </defs>
      <use xlink:href="#DejaVuSans-78"/>
     </g>
    </g>
   </g>
   <g id="matplotlib.axis_2">
    <g id="ytick_1">
     <g id="line2d_13">
      <path d="M 108 554.04 
L 777.6 554.04 
" clip-path="url(#p54bceade21)" style="fill: none; stroke: #b0b0b0; stroke-width: 0.8; stroke-linecap: square"/>
     </g>
     <g id="line2d_14">
      <defs>
       <path id="md4208ae59a" d="M 0 0 
L -3.5 0 
" style="stroke: #000000; stroke-width: 0.8"/>
      </defs>
      <g>
       <use xlink:href="#md4208ae59a" x="108" y="554.04" style="stroke: #000000; stroke-width: 0.8"/>
      </g>
     </g>
     <g id="text_8">
      <!-- 0.0 -->
      <g transform="translate(85.096875 557.839219) scale(0.1 -0.1)">
       <use xlink:href="#DejaVuSans-30"/>
       <use xlink:href="#DejaVuSans-2e" x="63.623047"/>
       <use xlink:href="#DejaVuSans-30" x="95.410156"/>
      </g>
     </g>
    </g>
    <g id="ytick_2">
     <g id="line2d_15">
      <path d="M 108 465.373769 
L 777.6 465.373769 
" clip-path="url(#p54bceade21)" style="fill: none; stroke: #b0b0b0; stroke-width: 0.8; stroke-linecap: square"/>
     </g>
     <g id="line2d_16">
      <g>
       <use xlink:href="#md4208ae59a" x="108" y="465.373769" style="stroke: #000000; stroke-width: 0.8"/>
      </g>
     </g>
     <g id="text_9">
      <!-- 0.2 -->
      <g transform="translate(85.096875 469.172987) scale(0.1 -0.1)">
       <use xlink:href="#DejaVuSans-30"/>
       <use xlink:href="#DejaVuSans-2e" x="63.623047"/>
       <use xlink:href="#DejaVuSans-32" x="95.410156"/>
      </g>
     </g>
    </g>
    <g id="ytick_3">
     <g id="line2d_17">
      <path d="M 108 376.707537 
L 777.6 376.707537 
" clip-path="url(#p54bceade21)" style="fill: none; stroke: #b0b0b0; stroke-width: 0.8; stroke-linecap: square"/>
     </g>
     <g id="line2d_18">
      <g>
       <use xlink:href="#md4208ae59a" x="108" y="376.707537" style="stroke: #000000; stroke-width: 0.8"/>
      </g>
     </g>
     <g id="text_10">
      <!-- 0.4 -->
      <g transform="translate(85.096875 380.506756) scale(0.1 -0.1)">
       <use xlink:href="#DejaVuSans-30"/>
       <use xlink:href="#DejaVuSans-2e" x="63.623047"/>
       <use xlink:href="#DejaVuSans-34" x="95.410156"/>
      </g>
     </g>
    </g>
    <g id="ytick_4">
     <g id="line2d_19">
      <path d="M 108 288.041306 
L 777.6 288.041306 
" clip-path="url(#p54bceade21)" style="fill: none; stroke: #b0b0b0; stroke-width: 0.8; stroke-linecap: square"/>
     </g>
     <g id="line2d_20">
      <g>
       <use xlink:href="#md4208ae59a" x="108" y="288.041306" style="stroke: #000000; stroke-width: 0.8"/>
      </g>
     </g>
     <g id="text_11">
      <!-- 0.6 -->
      <g transform="translate(85.096875 291.840525) scale(0.1 -0.1)">
       <use xlink:href="#DejaVuSans-30"/>
       <use xlink:href="#DejaVuSans-2e" x="63.623047"/>
       <use xlink:href="#DejaVuSans-36" x="95.410156"/>
      </g>
     </g>
    </g>
    <g id="ytick_5">
     <g id="line2d_21">
      <path d="M 108 199.375075 
L 777.6 199.375075 
" clip-path="url(#p54bceade21)" style="fill: none; stroke: #b0b0b0; stroke-width: 0.8; stroke-linecap: square"/>
     </g>
     <g id="line2d_22">
      <g>
       <use xlink:href="#md4208ae59a" x="108" y="199.375075" style="stroke: #000000; stroke-width: 0.8"/>
      </g>
     </g>
     <g id="text_12">
      <!-- 0.8 -->
      <g transform="translate(85.096875 203.174294) scale(0.1 -0.1)">
       <use xlink:href="#DejaVuSans-30"/>
       <use xlink:href="#DejaVuSans-2e" x="63.623047"/>
       <use xlink:href="#DejaVuSans-38" x="95.410156"/>
      </g>
     </g>
    </g>
    <g id="ytick_6">
     <g id="line2d_23">
      <path d="M 108 110.708844 
L 777.6 110.708844 
" clip-path="url(#p54bceade21)" style="fill: none; stroke: #b0b0b0; stroke-width: 0.8; stroke-linecap: square"/>
     </g>
     <g id="line2d_24">
      <g>
       <use xlink:href="#md4208ae59a" x="108" y="110.708844" style="stroke: #000000; stroke-width: 0.8"/>
      </g>
     </g>
     <g id="text_13">
      <!-- 1.0 -->
      <g transform="translate(85.096875 114.508062) scale(0.1 -0.1)">
       <use xlink:href="#DejaVuSans-31"/>
       <use xlink:href="#DejaVuSans-2e" x="63.623047"/>
       <use xlink:href="#DejaVuSans-30" x="95.410156"/>
      </g>
     </g>
    </g>
    <g id="text_14">
     <!-- u(x) -->
     <g transform="translate(79.017187 337.269688) rotate(-90) scale(0.1 -0.1)">
      <defs>
       <path id="DejaVuSans-75" d="M 544 1381 
L 544 3500 
L 1119 3500 
L 1119 1403 
Q 1119 906 1312 657 
Q 1506 409 1894 409 
Q 2359 409 2629 706 
Q 2900 1003 2900 1516 
L 2900 3500 
L 3475 3500 
L 3475 0 
L 2900 0 
L 2900 538 
Q 2691 219 2414 64 
Q 2138 -91 1772 -91 
Q 1169 -91 856 284 
Q 544 659 544 1381 
z
M 1991 3584 
L 1991 3584 
z
" transform="scale(0.015625)"/>
       <path id="DejaVuSans-28" d="M 1984 4856 
Q 1566 4138 1362 3434 
Q 1159 2731 1159 2009 
Q 1159 1288 1364 580 
Q 1569 -128 1984 -844 
L 1484 -844 
Q 1016 -109 783 600 
Q 550 1309 550 2009 
Q 550 2706 781 3412 
Q 1013 4119 1484 4856 
L 1984 4856 
z
" transform="scale(0.015625)"/>
       <path id="DejaVuSans-29" d="M 513 4856 
L 1013 4856 
Q 1481 4119 1714 3412 
Q 1947 2706 1947 2009 
Q 1947 1309 1714 600 
Q 1481 -109 1013 -844 
L 513 -844 
Q 928 -128 1133 580 
Q 1338 1288 1338 2009 
Q 1338 2731 1133 3434 
Q 928 4138 513 4856 
z
" transform="scale(0.015625)"/>
      </defs>
      <use xlink:href="#DejaVuSans-75"/>
      <use xlink:href="#DejaVuSans-28" x="63.378906"/>
      <use xlink:href="#DejaVuSans-78" x="102.392578"/>
      <use xlink:href="#DejaVuSans-29" x="161.572266"/>
     </g>
    </g>
   </g>
   <g id="line2d_25">
    <path d="M 138.436364 554.04 
L 168.562276 485.389382 
L 184.553542 449.517437 
L 197.890756 420.133097 
L 209.742676 394.549042 
L 220.590196 371.65364 
L 230.682895 350.863146 
L 240.17904 331.803746 
L 249.188204 314.214368 
L 257.777345 297.92718 
L 266.001251 282.803687 
L 273.908618 268.722664 
L 281.529884 255.600482 
L 288.889396 243.366902 
L 296.017593 231.944887 
L 302.926647 221.28984 
L 309.634822 211.349218 
L 316.154291 202.081658 
L 322.503316 193.439224 
L 328.687985 185.392667 
L 334.714385 177.913213 
L 340.600778 170.958698 
L 346.347164 164.510553 
L 351.965716 158.537038 
L 357.462524 153.01472 
L 362.843673 147.921168 
L 368.115251 143.235011 
L 373.283345 138.93598 
L 378.354044 135.004943 
L 383.333433 131.423929 
L 388.2276 128.176148 
L 393.042633 125.245998 
L 397.778531 122.62228 
L 402.447469 120.287924 
L 407.055535 118.230927 
L 411.608815 116.440475 
L 416.113396 114.906941 
L 420.575367 113.621877 
L 425.000815 112.578007 
L 429.395825 111.769218 
L 433.766487 111.190555 
L 438.118887 110.838212 
L 442.459113 110.70953 
L 446.799338 110.803274 
L 451.139564 111.119399 
L 455.491964 111.659568 
L 459.862625 112.426608 
L 464.251549 113.422946 
L 468.670909 114.654603 
L 473.126793 116.127838 
L 477.625287 117.850065 
L 482.17248 119.829859 
L 486.774458 122.076963 
L 491.437309 124.602292 
L 496.16712 127.417937 
L 500.969978 130.537169 
L 505.851971 133.974439 
L 510.819185 137.74537 
L 515.877709 141.866756 
L 521.033629 146.356543 
L 526.286945 151.227997 
L 531.649833 156.506429 
L 537.128378 162.213096 
L 542.728669 168.370279 
L 548.456793 175.001231 
L 554.318836 182.130099 
L 560.326975 189.78978 
L 566.487295 198.007012 
L 572.805884 206.809113 
L 579.301004 216.241863 
L 585.978742 226.335406 
L 592.85736 237.139373 
L 599.949033 248.695901 
L 607.272022 261.058397 
L 614.850676 274.292874 
L 622.709345 288.46798 
L 630.884553 303.677239 
L 639.412822 320.01781 
L 648.348938 337.625592 
L 657.765949 356.678222 
L 667.761251 377.409719 
L 678.468764 400.138279 
L 690.119804 425.401071 
L 703.103956 454.098086 
L 718.267353 488.170197 
L 738.471011 534.157974 
L 747.157549 554.026072 
L 747.157549 554.026072 
" clip-path="url(#p54bceade21)" style="fill: none; stroke: #000000; stroke-width: 1.5; stroke-linecap: square"/>
   </g>
   <g id="line2d_26">
    <path d="M 138.436364 554.04 
L 239.890909 327.24 
L 341.345455 161.210877 
L 442.8 100.44 
L 544.254545 161.210877 
L 645.709091 327.24 
L 747.163636 554.04 
" clip-path="url(#p54bceade21)" style="fill: none; stroke-dasharray: 5.55,2.4; stroke-dashoffset: 0; stroke: #0000ff; stroke-width: 1.5"/>
    <defs>
     <path id="mc05b6ba776" d="M 0 3 
C 0.795609 3 1.55874 2.683901 2.12132 2.12132 
C 2.683901 1.55874 3 0.795609 3 0 
C 3 -0.795609 2.683901 -1.55874 2.12132 -2.12132 
C 1.55874 -2.683901 0.795609 -3 0 -3 
C -0.795609 -3 -1.55874 -2.683901 -2.12132 -2.12132 
C -2.683901 -1.55874 -3 -0.795609 -3 0 
C -3 0.795609 -2.683901 1.55874 -2.12132 2.12132 
C -1.55874 2.683901 -0.795609 3 0 3 
z
" style="stroke: #0000ff"/>
    </defs>
    <g clip-path="url(#p54bceade21)">
     <use xlink:href="#mc05b6ba776" x="138.436364" y="554.04" style="fill: #0000ff; stroke: #0000ff"/>
     <use xlink:href="#mc05b6ba776" x="239.890909" y="327.24" style="fill: #0000ff; stroke: #0000ff"/>
     <use xlink:href="#mc05b6ba776" x="341.345455" y="161.210877" style="fill: #0000ff; stroke: #0000ff"/>
     <use xlink:href="#mc05b6ba776" x="442.8" y="100.44" style="fill: #0000ff; stroke: #0000ff"/>
     <use xlink:href="#mc05b6ba776" x="544.254545" y="161.210877" style="fill: #0000ff; stroke: #0000ff"/>
     <use xlink:href="#mc05b6ba776" x="645.709091" y="327.24" style="fill: #0000ff; stroke: #0000ff"/>
     <use xlink:href="#mc05b6ba776" x="747.163636" y="554.04" style="fill: #0000ff; stroke: #0000ff"/>
    </g>
   </g>
   <g id="line2d_27">
    <path d="M 138.436364 554.04 
L 199.309091 417.009291 
L 260.181818 293.49963 
L 321.054545 195.288946 
L 381.927273 132.476826 
L 442.8 110.599311 
L 503.672727 132.476826 
L 564.545455 195.288946 
L 625.418182 293.49963 
L 686.290909 417.009291 
L 747.163636 554.04 
" clip-path="url(#p54bceade21)" style="fill: none; stroke-dasharray: 5.55,2.4; stroke-dashoffset: 0; stroke: #ff0000; stroke-width: 1.5"/>
    <defs>
     <path id="m28da63198a" d="M 0 3 
C 0.795609 3 1.55874 2.683901 2.12132 2.12132 
C 2.683901 1.55874 3 0.795609 3 0 
C 3 -0.795609 2.683901 -1.55874 2.12132 -2.12132 
C 1.55874 -2.683901 0.795609 -3 0 -3 
C -0.795609 -3 -1.55874 -2.683901 -2.12132 -2.12132 
C -2.683901 -1.55874 -3 -0.795609 -3 0 
C -3 0.795609 -2.683901 1.55874 -2.12132 2.12132 
C -1.55874 2.683901 -0.795609 3 0 3 
z
" style="stroke: #ff0000"/>
    </defs>
    <g clip-path="url(#p54bceade21)">
     <use xlink:href="#m28da63198a" x="138.436364" y="554.04" style="fill: #ff0000; stroke: #ff0000"/>
     <use xlink:href="#m28da63198a" x="199.309091" y="417.009291" style="fill: #ff0000; stroke: #ff0000"/>
     <use xlink:href="#m28da63198a" x="260.181818" y="293.49963" style="fill: #ff0000; stroke: #ff0000"/>
     <use xlink:href="#m28da63198a" x="321.054545" y="195.288946" style="fill: #ff0000; stroke: #ff0000"/>
     <use xlink:href="#m28da63198a" x="381.927273" y="132.476826" style="fill: #ff0000; stroke: #ff0000"/>
     <use xlink:href="#m28da63198a" x="442.8" y="110.599311" style="fill: #ff0000; stroke: #ff0000"/>
     <use xlink:href="#m28da63198a" x="503.672727" y="132.476826" style="fill: #ff0000; stroke: #ff0000"/>
     <use xlink:href="#m28da63198a" x="564.545455" y="195.288946" style="fill: #ff0000; stroke: #ff0000"/>
     <use xlink:href="#m28da63198a" x="625.418182" y="293.49963" style="fill: #ff0000; stroke: #ff0000"/>
     <use xlink:href="#m28da63198a" x="686.290909" y="417.009291" style="fill: #ff0000; stroke: #ff0000"/>
     <use xlink:href="#m28da63198a" x="747.163636" y="554.04" style="fill: #ff0000; stroke: #ff0000"/>
    </g>
   </g>
   <g id="patch_3">
    <path d="M 108 576.72 
L 108 77.76 
" style="fill: none; stroke: #000000; stroke-width: 0.8; stroke-linejoin: miter; stroke-linecap: square"/>
   </g>
   <g id="patch_4">
    <path d="M 777.6 576.72 
L 777.6 77.76 
" style="fill: none; stroke: #000000; stroke-width: 0.8; stroke-linejoin: miter; stroke-linecap: square"/>
   </g>
   <g id="patch_5">
    <path d="M 108 576.72 
L 777.6 576.72 
" style="fill: none; stroke: #000000; stroke-width: 0.8; stroke-linejoin: miter; stroke-linecap: square"/>
   </g>
   <g id="patch_6">
    <path d="M 108 77.76 
L 777.6 77.76 
" style="fill: none; stroke: #000000; stroke-width: 0.8; stroke-linejoin: miter; stroke-linecap: square"/>
   </g>
   <g id="text_15">
    <!-- FEM cG(1) and cG(2) Approximation for 1D: $-u''(x) = f(x)$,  $f(x) = \pi^2 \sin(\pi x)$ -->
    <g transform="translate(221.94 71.76) scale(0.12 -0.12)">
     <defs>
      <path id="DejaVuSans-46" d="M 628 4666 
L 3309 4666 
L 3309 4134 
L 1259 4134 
L 1259 2759 
L 3109 2759 
L 3109 2228 
L 1259 2228 
L 1259 0 
L 628 0 
L 628 4666 
z
" transform="scale(0.015625)"/>
      <path id="DejaVuSans-45" d="M 628 4666 
L 3578 4666 
L 3578 4134 
L 1259 4134 
L 1259 2753 
L 3481 2753 
L 3481 2222 
L 1259 2222 
L 1259 531 
L 3634 531 
L 3634 0 
L 628 0 
L 628 4666 
z
" transform="scale(0.015625)"/>
      <path id="DejaVuSans-4d" d="M 628 4666 
L 1569 4666 
L 2759 1491 
L 3956 4666 
L 4897 4666 
L 4897 0 
L 4281 0 
L 4281 4097 
L 3078 897 
L 2444 897 
L 1241 4097 
L 1241 0 
L 628 0 
L 628 4666 
z
" transform="scale(0.015625)"/>
      <path id="DejaVuSans-20" transform="scale(0.015625)"/>
      <path id="DejaVuSans-63" d="M 3122 3366 
L 3122 2828 
Q 2878 2963 2633 3030 
Q 2388 3097 2138 3097 
Q 1578 3097 1268 2742 
Q 959 2388 959 1747 
Q 959 1106 1268 751 
Q 1578 397 2138 397 
Q 2388 397 2633 464 
Q 2878 531 3122 666 
L 3122 134 
Q 2881 22 2623 -34 
Q 2366 -91 2075 -91 
Q 1284 -91 818 406 
Q 353 903 353 1747 
Q 353 2603 823 3093 
Q 1294 3584 2113 3584 
Q 2378 3584 2631 3529 
Q 2884 3475 3122 3366 
z
" transform="scale(0.015625)"/>
      <path id="DejaVuSans-47" d="M 3809 666 
L 3809 1919 
L 2778 1919 
L 2778 2438 
L 4434 2438 
L 4434 434 
Q 4069 175 3628 42 
Q 3188 -91 2688 -91 
Q 1594 -91 976 548 
Q 359 1188 359 2328 
Q 359 3472 976 4111 
Q 1594 4750 2688 4750 
Q 3144 4750 3555 4637 
Q 3966 4525 4313 4306 
L 4313 3634 
Q 3963 3931 3569 4081 
Q 3175 4231 2741 4231 
Q 1884 4231 1454 3753 
Q 1025 3275 1025 2328 
Q 1025 1384 1454 906 
Q 1884 428 2741 428 
Q 3075 428 3337 486 
Q 3600 544 3809 666 
z
" transform="scale(0.015625)"/>
      <path id="DejaVuSans-61" d="M 2194 1759 
Q 1497 1759 1228 1600 
Q 959 1441 959 1056 
Q 959 750 1161 570 
Q 1363 391 1709 391 
Q 2188 391 2477 730 
Q 2766 1069 2766 1631 
L 2766 1759 
L 2194 1759 
z
M 3341 1997 
L 3341 0 
L 2766 0 
L 2766 531 
Q 2569 213 2275 61 
Q 1981 -91 1556 -91 
Q 1019 -91 701 211 
Q 384 513 384 1019 
Q 384 1609 779 1909 
Q 1175 2209 1959 2209 
L 2766 2209 
L 2766 2266 
Q 2766 2663 2505 2880 
Q 2244 3097 1772 3097 
Q 1472 3097 1187 3025 
Q 903 2953 641 2809 
L 641 3341 
Q 956 3463 1253 3523 
Q 1550 3584 1831 3584 
Q 2591 3584 2966 3190 
Q 3341 2797 3341 1997 
z
" transform="scale(0.015625)"/>
      <path id="DejaVuSans-6e" d="M 3513 2113 
L 3513 0 
L 2938 0 
L 2938 2094 
Q 2938 2591 2744 2837 
Q 2550 3084 2163 3084 
Q 1697 3084 1428 2787 
Q 1159 2491 1159 1978 
L 1159 0 
L 581 0 
L 581 3500 
L 1159 3500 
L 1159 2956 
Q 1366 3272 1645 3428 
Q 1925 3584 2291 3584 
Q 2894 3584 3203 3211 
Q 3513 2838 3513 2113 
z
" transform="scale(0.015625)"/>
      <path id="DejaVuSans-64" d="M 2906 2969 
L 2906 4863 
L 3481 4863 
L 3481 0 
L 2906 0 
L 2906 525 
Q 2725 213 2448 61 
Q 2172 -91 1784 -91 
Q 1150 -91 751 415 
Q 353 922 353 1747 
Q 353 2572 751 3078 
Q 1150 3584 1784 3584 
Q 2172 3584 2448 3432 
Q 2725 3281 2906 2969 
z
M 947 1747 
Q 947 1113 1208 752 
Q 1469 391 1925 391 
Q 2381 391 2643 752 
Q 2906 1113 2906 1747 
Q 2906 2381 2643 2742 
Q 2381 3103 1925 3103 
Q 1469 3103 1208 2742 
Q 947 2381 947 1747 
z
" transform="scale(0.015625)"/>
      <path id="DejaVuSans-41" d="M 2188 4044 
L 1331 1722 
L 3047 1722 
L 2188 4044 
z
M 1831 4666 
L 2547 4666 
L 4325 0 
L 3669 0 
L 3244 1197 
L 1141 1197 
L 716 0 
L 50 0 
L 1831 4666 
z
" transform="scale(0.015625)"/>
      <path id="DejaVuSans-70" d="M 1159 525 
L 1159 -1331 
L 581 -1331 
L 581 3500 
L 1159 3500 
L 1159 2969 
Q 1341 3281 1617 3432 
Q 1894 3584 2278 3584 
Q 2916 3584 3314 3078 
Q 3713 2572 3713 1747 
Q 3713 922 3314 415 
Q 2916 -91 2278 -91 
Q 1894 -91 1617 61 
Q 1341 213 1159 525 
z
M 3116 1747 
Q 3116 2381 2855 2742 
Q 2594 3103 2138 3103 
Q 1681 3103 1420 2742 
Q 1159 2381 1159 1747 
Q 1159 1113 1420 752 
Q 1681 391 2138 391 
Q 2594 391 2855 752 
Q 3116 1113 3116 1747 
z
" transform="scale(0.015625)"/>
      <path id="DejaVuSans-72" d="M 2631 2963 
Q 2534 3019 2420 3045 
Q 2306 3072 2169 3072 
Q 1681 3072 1420 2755 
Q 1159 2438 1159 1844 
L 1159 0 
L 581 0 
L 581 3500 
L 1159 3500 
L 1159 2956 
Q 1341 3275 1631 3429 
Q 1922 3584 2338 3584 
Q 2397 3584 2469 3576 
Q 2541 3569 2628 3553 
L 2631 2963 
z
" transform="scale(0.015625)"/>
      <path id="DejaVuSans-6f" d="M 1959 3097 
Q 1497 3097 1228 2736 
Q 959 2375 959 1747 
Q 959 1119 1226 758 
Q 1494 397 1959 397 
Q 2419 397 2687 759 
Q 2956 1122 2956 1747 
Q 2956 2369 2687 2733 
Q 2419 3097 1959 3097 
z
M 1959 3584 
Q 2709 3584 3137 3096 
Q 3566 2609 3566 1747 
Q 3566 888 3137 398 
Q 2709 -91 1959 -91 
Q 1206 -91 779 398 
Q 353 888 353 1747 
Q 353 2609 779 3096 
Q 1206 3584 1959 3584 
z
" transform="scale(0.015625)"/>
      <path id="DejaVuSans-69" d="M 603 3500 
L 1178 3500 
L 1178 0 
L 603 0 
L 603 3500 
z
M 603 4863 
L 1178 4863 
L 1178 4134 
L 603 4134 
L 603 4863 
z
" transform="scale(0.015625)"/>
      <path id="DejaVuSans-6d" d="M 3328 2828 
Q 3544 3216 3844 3400 
Q 4144 3584 4550 3584 
Q 5097 3584 5394 3201 
Q 5691 2819 5691 2113 
L 5691 0 
L 5113 0 
L 5113 2094 
Q 5113 2597 4934 2840 
Q 4756 3084 4391 3084 
Q 3944 3084 3684 2787 
Q 3425 2491 3425 1978 
L 3425 0 
L 2847 0 
L 2847 2094 
Q 2847 2600 2669 2842 
Q 2491 3084 2119 3084 
Q 1678 3084 1418 2786 
Q 1159 2488 1159 1978 
L 1159 0 
L 581 0 
L 581 3500 
L 1159 3500 
L 1159 2956 
Q 1356 3278 1631 3431 
Q 1906 3584 2284 3584 
Q 2666 3584 2933 3390 
Q 3200 3197 3328 2828 
z
" transform="scale(0.015625)"/>
      <path id="DejaVuSans-74" d="M 1172 4494 
L 1172 3500 
L 2356 3500 
L 2356 3053 
L 1172 3053 
L 1172 1153 
Q 1172 725 1289 603 
Q 1406 481 1766 481 
L 2356 481 
L 2356 0 
L 1766 0 
Q 1100 0 847 248 
Q 594 497 594 1153 
L 594 3053 
L 172 3053 
L 172 3500 
L 594 3500 
L 594 4494 
L 1172 4494 
z
" transform="scale(0.015625)"/>
      <path id="DejaVuSans-66" d="M 2375 4863 
L 2375 4384 
L 1825 4384 
Q 1516 4384 1395 4259 
Q 1275 4134 1275 3809 
L 1275 3500 
L 2222 3500 
L 2222 3053 
L 1275 3053 
L 1275 0 
L 697 0 
L 697 3053 
L 147 3053 
L 147 3500 
L 697 3500 
L 697 3744 
Q 697 4328 969 4595 
Q 1241 4863 1831 4863 
L 2375 4863 
z
" transform="scale(0.015625)"/>
      <path id="DejaVuSans-44" d="M 1259 4147 
L 1259 519 
L 2022 519 
Q 2988 519 3436 956 
Q 3884 1394 3884 2338 
Q 3884 3275 3436 3711 
Q 2988 4147 2022 4147 
L 1259 4147 
z
M 628 4666 
L 1925 4666 
Q 3281 4666 3915 4102 
Q 4550 3538 4550 2338 
Q 4550 1131 3912 565 
Q 3275 0 1925 0 
L 628 0 
L 628 4666 
z
" transform="scale(0.015625)"/>
      <path id="DejaVuSans-3a" d="M 750 794 
L 1409 794 
L 1409 0 
L 750 0 
L 750 794 
z
M 750 3309 
L 1409 3309 
L 1409 2516 
L 750 2516 
L 750 3309 
z
" transform="scale(0.015625)"/>
      <path id="DejaVuSans-2212" d="M 678 2272 
L 4684 2272 
L 4684 1741 
L 678 1741 
L 678 2272 
z
" transform="scale(0.015625)"/>
      <path id="DejaVuSans-Oblique-75" d="M 428 1388 
L 838 3500 
L 1416 3500 
L 1006 1409 
Q 975 1256 961 1147 
Q 947 1038 947 966 
Q 947 700 1109 554 
Q 1272 409 1569 409 
Q 2031 409 2368 721 
Q 2706 1034 2809 1563 
L 3194 3500 
L 3769 3500 
L 3091 0 
L 2516 0 
L 2631 550 
Q 2388 244 2052 76 
Q 1716 -91 1338 -91 
Q 878 -91 622 161 
Q 366 413 366 863 
Q 366 956 381 1097 
Q 397 1238 428 1388 
z
" transform="scale(0.015625)"/>
      <path id="Cmsy10-30" d="M 225 347 
Q 184 359 184 409 
L 966 3316 
Q 1003 3434 1093 3506 
Q 1184 3578 1300 3578 
Q 1450 3578 1564 3479 
Q 1678 3381 1678 3231 
Q 1678 3166 1644 3084 
L 488 319 
Q 466 275 428 275 
Q 394 275 320 306 
Q 247 338 225 347 
z
" transform="scale(0.015625)"/>
      <path id="DejaVuSans-Oblique-78" d="M 3841 3500 
L 2234 1784 
L 3219 0 
L 2559 0 
L 1819 1388 
L 531 0 
L -166 0 
L 1556 1844 
L 641 3500 
L 1300 3500 
L 1972 2234 
L 3144 3500 
L 3841 3500 
z
" transform="scale(0.015625)"/>
      <path id="DejaVuSans-3d" d="M 678 2906 
L 4684 2906 
L 4684 2381 
L 678 2381 
L 678 2906 
z
M 678 1631 
L 4684 1631 
L 4684 1100 
L 678 1100 
L 678 1631 
z
" transform="scale(0.015625)"/>
      <path id="DejaVuSans-Oblique-66" d="M 3059 4863 
L 2969 4384 
L 2419 4384 
Q 2106 4384 1964 4261 
Q 1822 4138 1753 3809 
L 1691 3500 
L 2638 3500 
L 2553 3053 
L 1606 3053 
L 1013 0 
L 434 0 
L 1031 3053 
L 481 3053 
L 563 3500 
L 1113 3500 
L 1159 3744 
Q 1278 4363 1576 4613 
Q 1875 4863 2516 4863 
L 3059 4863 
z
" transform="scale(0.015625)"/>
      <path id="DejaVuSans-2c" d="M 750 794 
L 1409 794 
L 1409 256 
L 897 -744 
L 494 -744 
L 750 256 
L 750 794 
z
" transform="scale(0.015625)"/>
      <path id="DejaVuSans-Oblique-3c0" d="M 584 3500 
L 3938 3500 
L 3825 2925 
L 3384 2925 
L 2966 775 
Q 2922 550 2981 450 
Q 3038 353 3209 353 
Q 3256 353 3325 363 
Q 3397 369 3419 372 
L 3338 -44 
Q 3222 -84 3103 -103 
Q 2981 -122 2866 -122 
Q 2491 -122 2388 81 
Q 2284 288 2391 838 
L 2797 2925 
L 1506 2925 
L 938 0 
L 350 0 
L 919 2925 
L 472 2925 
L 584 3500 
z
" transform="scale(0.015625)"/>
      <path id="DejaVuSans-73" d="M 2834 3397 
L 2834 2853 
Q 2591 2978 2328 3040 
Q 2066 3103 1784 3103 
Q 1356 3103 1142 2972 
Q 928 2841 928 2578 
Q 928 2378 1081 2264 
Q 1234 2150 1697 2047 
L 1894 2003 
Q 2506 1872 2764 1633 
Q 3022 1394 3022 966 
Q 3022 478 2636 193 
Q 2250 -91 1575 -91 
Q 1294 -91 989 -36 
Q 684 19 347 128 
L 347 722 
Q 666 556 975 473 
Q 1284 391 1588 391 
Q 1994 391 2212 530 
Q 2431 669 2431 922 
Q 2431 1156 2273 1281 
Q 2116 1406 1581 1522 
L 1381 1569 
Q 847 1681 609 1914 
Q 372 2147 372 2553 
Q 372 3047 722 3315 
Q 1072 3584 1716 3584 
Q 2034 3584 2315 3537 
Q 2597 3491 2834 3397 
z
" transform="scale(0.015625)"/>
     </defs>
     <use xlink:href="#DejaVuSans-46" transform="translate(0 0.765625)"/>
     <use xlink:href="#DejaVuSans-45" transform="translate(57.519531 0.765625)"/>
     <use xlink:href="#DejaVuSans-4d" transform="translate(120.703125 0.765625)"/>
     <use xlink:href="#DejaVuSans-20" transform="translate(206.982422 0.765625)"/>
     <use xlink:href="#DejaVuSans-63" transform="translate(238.769531 0.765625)"/>
     <use xlink:href="#DejaVuSans-47" transform="translate(293.75 0.765625)"/>
     <use xlink:href="#DejaVuSans-28" transform="translate(371.240234 0.765625)"/>
     <use xlink:href="#DejaVuSans-31" transform="translate(410.253906 0.765625)"/>
     <use xlink:href="#DejaVuSans-29" transform="translate(473.876953 0.765625)"/>
     <use xlink:href="#DejaVuSans-20" transform="translate(512.890625 0.765625)"/>
     <use xlink:href="#DejaVuSans-61" transform="translate(544.677734 0.765625)"/>
     <use xlink:href="#DejaVuSans-6e" transform="translate(605.957031 0.765625)"/>
     <use xlink:href="#DejaVuSans-64" transform="translate(669.335938 0.765625)"/>
     <use xlink:href="#DejaVuSans-20" transform="translate(732.8125 0.765625)"/>
     <use xlink:href="#DejaVuSans-63" transform="translate(764.599609 0.765625)"/>
     <use xlink:href="#DejaVuSans-47" transform="translate(819.580078 0.765625)"/>
     <use xlink:href="#DejaVuSans-28" transform="translate(897.070312 0.765625)"/>
     <use xlink:href="#DejaVuSans-32" transform="translate(936.083984 0.765625)"/>
     <use xlink:href="#DejaVuSans-29" transform="translate(999.707031 0.765625)"/>
     <use xlink:href="#DejaVuSans-20" transform="translate(1038.720703 0.765625)"/>
     <use xlink:href="#DejaVuSans-41" transform="translate(1070.507812 0.765625)"/>
     <use xlink:href="#DejaVuSans-70" transform="translate(1138.916016 0.765625)"/>
     <use xlink:href="#DejaVuSans-70" transform="translate(1202.392578 0.765625)"/>
     <use xlink:href="#DejaVuSans-72" transform="translate(1265.869141 0.765625)"/>
     <use xlink:href="#DejaVuSans-6f" transform="translate(1306.982422 0.765625)"/>
     <use xlink:href="#DejaVuSans-78" transform="translate(1368.164062 0.765625)"/>
     <use xlink:href="#DejaVuSans-69" transform="translate(1427.34375 0.765625)"/>
     <use xlink:href="#DejaVuSans-6d" transform="translate(1455.126953 0.765625)"/>
     <use xlink:href="#DejaVuSans-61" transform="translate(1552.539062 0.765625)"/>
     <use xlink:href="#DejaVuSans-74" transform="translate(1613.818359 0.765625)"/>
     <use xlink:href="#DejaVuSans-69" transform="translate(1653.027344 0.765625)"/>
     <use xlink:href="#DejaVuSans-6f" transform="translate(1680.810547 0.765625)"/>
     <use xlink:href="#DejaVuSans-6e" transform="translate(1741.992188 0.765625)"/>
     <use xlink:href="#DejaVuSans-20" transform="translate(1805.371094 0.765625)"/>
     <use xlink:href="#DejaVuSans-66" transform="translate(1837.158203 0.765625)"/>
     <use xlink:href="#DejaVuSans-6f" transform="translate(1872.363281 0.765625)"/>
     <use xlink:href="#DejaVuSans-72" transform="translate(1933.544922 0.765625)"/>
     <use xlink:href="#DejaVuSans-20" transform="translate(1974.658203 0.765625)"/>
     <use xlink:href="#DejaVuSans-31" transform="translate(2006.445312 0.765625)"/>
     <use xlink:href="#DejaVuSans-44" transform="translate(2070.068359 0.765625)"/>
     <use xlink:href="#DejaVuSans-3a" transform="translate(2147.070312 0.765625)"/>
     <use xlink:href="#DejaVuSans-20" transform="translate(2180.761719 0.765625)"/>
     <use xlink:href="#DejaVuSans-2212" transform="translate(2212.548828 0.765625)"/>
     <use xlink:href="#DejaVuSans-Oblique-75" transform="translate(2296.337891 0.765625)"/>
     <use xlink:href="#Cmsy10-30" transform="translate(2364.182943 39.046875) scale(0.7)"/>
     <use xlink:href="#Cmsy10-30" transform="translate(2383.426107 39.046875) scale(0.7)"/>
     <use xlink:href="#DejaVuSans-28" transform="translate(2405.403646 0.765625)"/>
     <use xlink:href="#DejaVuSans-Oblique-78" transform="translate(2444.417318 0.765625)"/>
     <use xlink:href="#DejaVuSans-29" transform="translate(2503.597005 0.765625)"/>
     <use xlink:href="#DejaVuSans-3d" transform="translate(2562.093099 0.765625)"/>
     <use xlink:href="#DejaVuSans-Oblique-66" transform="translate(2665.364583 0.765625)"/>
     <use xlink:href="#DejaVuSans-28" transform="translate(2700.569661 0.765625)"/>
     <use xlink:href="#DejaVuSans-Oblique-78" transform="translate(2739.583333 0.765625)"/>
     <use xlink:href="#DejaVuSans-29" transform="translate(2798.763021 0.765625)"/>
     <use xlink:href="#DejaVuSans-2c" transform="translate(2837.776693 0.765625)"/>
     <use xlink:href="#DejaVuSans-20" transform="translate(2869.563802 0.765625)"/>
     <use xlink:href="#DejaVuSans-20" transform="translate(2901.350911 0.765625)"/>
     <use xlink:href="#DejaVuSans-Oblique-66" transform="translate(2933.138021 0.765625)"/>
     <use xlink:href="#DejaVuSans-28" transform="translate(2968.343099 0.765625)"/>
     <use xlink:href="#DejaVuSans-Oblique-78" transform="translate(3007.356771 0.765625)"/>
     <use xlink:href="#DejaVuSans-29" transform="translate(3066.536458 0.765625)"/>
     <use xlink:href="#DejaVuSans-3d" transform="translate(3125.032552 0.765625)"/>
     <use xlink:href="#DejaVuSans-Oblique-3c0" transform="translate(3228.304036 0.765625)"/>
     <use xlink:href="#DejaVuSans-32" transform="translate(3292.97526 39.046875) scale(0.7)"/>
     <use xlink:href="#DejaVuSans-73" transform="translate(3340.245768 0.765625)"/>
     <use xlink:href="#DejaVuSans-69" transform="translate(3392.345378 0.765625)"/>
     <use xlink:href="#DejaVuSans-6e" transform="translate(3420.128581 0.765625)"/>
     <use xlink:href="#DejaVuSans-28" transform="translate(3483.507487 0.765625)"/>
     <use xlink:href="#DejaVuSans-Oblique-3c0" transform="translate(3522.521159 0.765625)"/>
     <use xlink:href="#DejaVuSans-Oblique-78" transform="translate(3582.726237 0.765625)"/>
     <use xlink:href="#DejaVuSans-29" transform="translate(3641.905924 0.765625)"/>
    </g>
   </g>
   <g id="legend_1">
    <g id="patch_7">
     <path d="M 641.2 129.794375 
L 770.6 129.794375 
Q 772.6 129.794375 772.6 127.794375 
L 772.6 84.76 
Q 772.6 82.76 770.6 82.76 
L 641.2 82.76 
Q 639.2 82.76 639.2 84.76 
L 639.2 127.794375 
Q 639.2 129.794375 641.2 129.794375 
z
" style="fill: #ffffff; opacity: 0.8; stroke: #cccccc; stroke-linejoin: miter"/>
    </g>
    <g id="line2d_28">
     <path d="M 643.2 90.858437 
L 653.2 90.858437 
L 663.2 90.858437 
" style="fill: none; stroke: #000000; stroke-width: 1.5; stroke-linecap: square"/>
    </g>
    <g id="text_16">
     <!-- Exact $u(x)=\sin(\pi x)$ -->
     <g transform="translate(671.2 94.358437) scale(0.1 -0.1)">
      <use xlink:href="#DejaVuSans-45" transform="translate(0 0.015625)"/>
      <use xlink:href="#DejaVuSans-78" transform="translate(63.183594 0.015625)"/>
      <use xlink:href="#DejaVuSans-61" transform="translate(122.363281 0.015625)"/>
      <use xlink:href="#DejaVuSans-63" transform="translate(183.642578 0.015625)"/>
      <use xlink:href="#DejaVuSans-74" transform="translate(238.623047 0.015625)"/>
      <use xlink:href="#DejaVuSans-20" transform="translate(277.832031 0.015625)"/>
      <use xlink:href="#DejaVuSans-Oblique-75" transform="translate(309.619141 0.015625)"/>
      <use xlink:href="#DejaVuSans-28" transform="translate(372.998047 0.015625)"/>
      <use xlink:href="#DejaVuSans-Oblique-78" transform="translate(412.011719 0.015625)"/>
      <use xlink:href="#DejaVuSans-29" transform="translate(471.191406 0.015625)"/>
      <use xlink:href="#DejaVuSans-3d" transform="translate(529.6875 0.015625)"/>
      <use xlink:href="#DejaVuSans-73" transform="translate(632.958984 0.015625)"/>
      <use xlink:href="#DejaVuSans-69" transform="translate(685.058594 0.015625)"/>
      <use xlink:href="#DejaVuSans-6e" transform="translate(712.841797 0.015625)"/>
      <use xlink:href="#DejaVuSans-28" transform="translate(776.220703 0.015625)"/>
      <use xlink:href="#DejaVuSans-Oblique-3c0" transform="translate(815.234375 0.015625)"/>
      <use xlink:href="#DejaVuSans-Oblique-78" transform="translate(875.439453 0.015625)"/>
      <use xlink:href="#DejaVuSans-29" transform="translate(934.619141 0.015625)"/>
     </g>
    </g>
    <g id="line2d_29">
     <path d="M 643.2 105.536562 
L 653.2 105.536562 
L 663.2 105.536562 
" style="fill: none; stroke-dasharray: 5.55,2.4; stroke-dashoffset: 0; stroke: #0000ff; stroke-width: 1.5"/>
     <g>
      <use xlink:href="#mc05b6ba776" x="653.2" y="105.536562" style="fill: #0000ff; stroke: #0000ff"/>
     </g>
    </g>
    <g id="text_17">
     <!-- FEM cG(1) solution -->
     <g transform="translate(671.2 109.036562) scale(0.1 -0.1)">
      <defs>
       <path id="DejaVuSans-6c" d="M 603 4863 
L 1178 4863 
L 1178 0 
L 603 0 
L 603 4863 
z
" transform="scale(0.015625)"/>
      </defs>
      <use xlink:href="#DejaVuSans-46"/>
      <use xlink:href="#DejaVuSans-45" x="57.519531"/>
      <use xlink:href="#DejaVuSans-4d" x="120.703125"/>
      <use xlink:href="#DejaVuSans-20" x="206.982422"/>
      <use xlink:href="#DejaVuSans-63" x="238.769531"/>
      <use xlink:href="#DejaVuSans-47" x="293.75"/>
      <use xlink:href="#DejaVuSans-28" x="371.240234"/>
      <use xlink:href="#DejaVuSans-31" x="410.253906"/>
      <use xlink:href="#DejaVuSans-29" x="473.876953"/>
      <use xlink:href="#DejaVuSans-20" x="512.890625"/>
      <use xlink:href="#DejaVuSans-73" x="544.677734"/>
      <use xlink:href="#DejaVuSans-6f" x="596.777344"/>
      <use xlink:href="#DejaVuSans-6c" x="657.958984"/>
      <use xlink:href="#DejaVuSans-75" x="685.742188"/>
      <use xlink:href="#DejaVuSans-74" x="749.121094"/>
      <use xlink:href="#DejaVuSans-69" x="788.330078"/>
      <use xlink:href="#DejaVuSans-6f" x="816.113281"/>
      <use xlink:href="#DejaVuSans-6e" x="877.294922"/>
     </g>
    </g>
    <g id="line2d_30">
     <path d="M 643.2 120.214687 
L 653.2 120.214687 
L 663.2 120.214687 
" style="fill: none; stroke-dasharray: 5.55,2.4; stroke-dashoffset: 0; stroke: #ff0000; stroke-width: 1.5"/>
     <g>
      <use xlink:href="#m28da63198a" x="653.2" y="120.214687" style="fill: #ff0000; stroke: #ff0000"/>
     </g>
    </g>
    <g id="text_18">
     <!-- FEM cG(2) solution -->
     <g transform="translate(671.2 123.714687) scale(0.1 -0.1)">
      <use xlink:href="#DejaVuSans-46"/>
      <use xlink:href="#DejaVuSans-45" x="57.519531"/>
      <use xlink:href="#DejaVuSans-4d" x="120.703125"/>
      <use xlink:href="#DejaVuSans-20" x="206.982422"/>
      <use xlink:href="#DejaVuSans-63" x="238.769531"/>
      <use xlink:href="#DejaVuSans-47" x="293.75"/>
      <use xlink:href="#DejaVuSans-28" x="371.240234"/>
      <use xlink:href="#DejaVuSans-32" x="410.253906"/>
      <use xlink:href="#DejaVuSans-29" x="473.876953"/>
      <use xlink:href="#DejaVuSans-20" x="512.890625"/>
      <use xlink:href="#DejaVuSans-73" x="544.677734"/>
      <use xlink:href="#DejaVuSans-6f" x="596.777344"/>
      <use xlink:href="#DejaVuSans-6c" x="657.958984"/>
      <use xlink:href="#DejaVuSans-75" x="685.742188"/>
      <use xlink:href="#DejaVuSans-74" x="749.121094"/>
      <use xlink:href="#DejaVuSans-69" x="788.330078"/>
      <use xlink:href="#DejaVuSans-6f" x="816.113281"/>
      <use xlink:href="#DejaVuSans-6e" x="877.294922"/>
     </g>
    </g>
   </g>
  </g>
 </g>
 <defs>
  <clipPath id="p54bceade21">
   <rect x="108" y="77.76" width="669.6" height="498.96"/>
  </clipPath>
 </defs>
</svg>
